<svg
  xmlns="http://www.w3.org/2000/svg"
  x="0"
  y="0"
  width="100%"
  height="100%"
  viewBox="-0.007511589210480452 -0.00038756232243031263 81.6910400390625 96.1171646118164"
>
  <defs>
    <linearGradient
      id="a2814d4c5-d460-47ae-808f-62342b472eeb"
      x1="40.84"
      y1="7.78"
      x2="40.84"
      y2="93.9"
      gradientUnits="userSpaceOnUse"
    >

      <!-- <stop offset="0" stop-color="#fffde4"></stop>
      <stop offset="1" stop-color="#005AA7"></stop> -->
      <stop offset="0" stop-color="#43c6ac"></stop>
      <stop offset="1" stop-color="#191654"></stop>
      <!-- <stop offset="0" stop-color="#4ecdc4"></stop> -->
      <!-- <stop offset="1" stop-color="#556270"></stop> -->
      <!-- <stop offset="0" stop-color="#f4e2d8"></stop>
      <stop offset="1" stop-color="#ba5370"></stop> -->

    </linearGradient>
  </defs>
  <g fill-rule="evenodd">
    <path
      d="M49.21 90.45a9 9 0 0 1-16.72 0l-31.81-78A9 9 0 0 1 9 0h63.6A9 9 0 0 1 81 12.44z"
      fill="url(#a2814d4c5-d460-47ae-808f-62342b472eeb)"
    ></path>
    <path
      d="M74.41 9.75L73.08 13a1.88 1.88 0 0 1-1.78 1.19H32.12l8.72 21.39 5.33-13.09a1.88 1.88 0 0 1 1.78-1.19h18.9a1.92 1.92 0 0 1 1.77 2.7l-26 63.8a1.92 1.92 0 0 1-3.55 0L7.26 9.76A1.92 1.92 0 0 1 9 7.12h3.54a1.89 1.89 0 0 1 1.78 1.19l26.5 65 18.29-44.86h-7.67l-10.6 26L22.61 9.76a1.92 1.92 0 0 1 1.78-2.64h48.25a1.92 1.92 0 0 1 1.78 2.64z"
      fill="#fff"
    ></path>
  </g>
</svg>
